<mxfile host="app.diagrams.net" modified="2023-10-17T05:09:36.772Z" agent="Mozilla/5.0 (Windows NT 10.0; Win64; x64) AppleWebKit/537.36 (KHTML, like Gecko) Chrome/106.0.0.0 Safari/537.36 Edg/106.0.1370.47" version="22.0.4" etag="XNbyy0ODSOBGpwZoOy78" type="github">
  <diagram name="Page-1" id="kCqD4bSdmbdbYEtiyipJ">
    <mxGraphModel>
      <root>
        <mxCell id="0" />
        <mxCell id="1" parent="0" />
      </root>
    </mxGraphModel>
  </diagram>
</mxfile>
